<svg width="180" height="40" viewBox="0 0 180 40" fill="none" xmlns="http://www.w3.org/2000/svg">
<rect width="180" height="40" rx="4" fill="#4D41C0"/>
<path d="M72.6367 25L71.9121 22.6211H68.2686L67.5439 25H65.2607L68.7881 14.9648H71.3789L74.9199 25H72.6367ZM71.4062 20.8438C70.7363 18.6882 70.3581 17.4691 70.2715 17.1865C70.1895 16.904 70.1302 16.6807 70.0938 16.5166C69.9434 17.0999 69.5127 18.5423 68.8018 20.8438H71.4062ZM77.8389 25L74.9268 17.3574H77.1074L78.584 21.7119C78.748 22.2633 78.8506 22.7852 78.8916 23.2773H78.9326C78.9554 22.8398 79.0579 22.318 79.2402 21.7119L80.71 17.3574H82.8906L79.9785 25H77.8389ZM88.8447 25L88.4414 23.9609H88.3867C88.0358 24.403 87.6735 24.7106 87.2998 24.8838C86.9307 25.0524 86.4476 25.1367 85.8506 25.1367C85.1169 25.1367 84.5381 24.9271 84.1143 24.5078C83.695 24.0885 83.4854 23.4915 83.4854 22.7168C83.4854 21.9056 83.7679 21.3086 84.333 20.9258C84.9027 20.5384 85.7594 20.3242 86.9033 20.2832L88.2295 20.2422V19.9072C88.2295 19.1325 87.833 18.7451 87.04 18.7451C86.4294 18.7451 85.7116 18.9297 84.8867 19.2988L84.1963 17.8906C85.0758 17.4303 86.0511 17.2002 87.1221 17.2002C88.1475 17.2002 88.9336 17.4235 89.4805 17.8701C90.0273 18.3167 90.3008 18.9958 90.3008 19.9072V25H88.8447ZM88.2295 21.459L87.4229 21.4863C86.8167 21.5046 86.3656 21.6139 86.0693 21.8145C85.7731 22.015 85.625 22.3203 85.625 22.7305C85.625 23.3184 85.9622 23.6123 86.6367 23.6123C87.1198 23.6123 87.5049 23.4733 87.792 23.1953C88.0837 22.9173 88.2295 22.5482 88.2295 22.0879V21.459ZM94.5391 25H92.4541V14.3633H94.5391V25ZM96.6445 15.3818C96.6445 14.7028 97.0228 14.3633 97.7793 14.3633C98.5358 14.3633 98.9141 14.7028 98.9141 15.3818C98.9141 15.7054 98.8184 15.9583 98.627 16.1406C98.4401 16.3184 98.1576 16.4072 97.7793 16.4072C97.0228 16.4072 96.6445 16.0654 96.6445 15.3818ZM98.8184 25H96.7334V17.3574H98.8184V25ZM105.866 25L105.463 23.9609H105.408C105.057 24.403 104.695 24.7106 104.321 24.8838C103.952 25.0524 103.469 25.1367 102.872 25.1367C102.138 25.1367 101.56 24.9271 101.136 24.5078C100.716 24.0885 100.507 23.4915 100.507 22.7168C100.507 21.9056 100.789 21.3086 101.354 20.9258C101.924 20.5384 102.781 20.3242 103.925 20.2832L105.251 20.2422V19.9072C105.251 19.1325 104.854 18.7451 104.062 18.7451C103.451 18.7451 102.733 18.9297 101.908 19.2988L101.218 17.8906C102.097 17.4303 103.073 17.2002 104.144 17.2002C105.169 17.2002 105.955 17.4235 106.502 17.8701C107.049 18.3167 107.322 18.9958 107.322 19.9072V25H105.866ZM105.251 21.459L104.444 21.4863C103.838 21.5046 103.387 21.6139 103.091 21.8145C102.795 22.015 102.646 22.3203 102.646 22.7305C102.646 23.3184 102.984 23.6123 103.658 23.6123C104.141 23.6123 104.526 23.4733 104.813 23.1953C105.105 22.9173 105.251 22.5482 105.251 22.0879V21.459ZM113.741 17.2139C114.024 17.2139 114.258 17.2344 114.445 17.2754L114.288 19.2305C114.119 19.1849 113.914 19.1621 113.673 19.1621C113.007 19.1621 112.488 19.333 112.114 19.6748C111.745 20.0166 111.561 20.4951 111.561 21.1104V25H109.476V17.3574H111.055L111.362 18.6426H111.465C111.702 18.2142 112.021 17.8701 112.422 17.6104C112.827 17.346 113.267 17.2139 113.741 17.2139Z" fill="white"/>
</svg>
